<svg width="22" height="22" viewBox="0 0 22 22" fill="none" xmlns="http://www.w3.org/2000/svg">
<path d="M16.0538 1.65448C16.0354 1.65487 15.2446 2.27198 15.2446 2.27198L14 2.02311C13.9909 2.02569 12.9626 3.00546 12.9626 3.00546L11.8605 2.93933L11.1962 3.66224L9.98996 3.63121L9.19436 4.51702L8.1042 4.64283L7.36844 5.43216L6.19905 5.81673L5.50888 6.78774L4.48966 7.05518L3.9309 7.93505L3.02202 8.42012L2.70401 9.35598L1.68703 9.9554L1.55486 10.9823C2.18701 10.753 2.77809 11.0126 3.22853 11.3432L4.3339 10.657L5.83446 10.4186L7.12425 9.25475L9.06687 9.0274L10.4835 7.75093L11.8879 7.39953L12.7581 6.25708C13.207 6.00614 13.8549 5.82782 14.4278 5.58857L14.8488 4.51886L16.0654 4.05609C16.0721 4.04887 16.0792 4.04144 16.0858 4.03418L16.2182 3.22804L17.0985 2.55927C17.1005 2.55397 17.1025 2.5487 17.1044 2.54346L16.4202 2.2881L16.0538 1.65448ZM11.0117 8.91586L10.9814 8.91603C10.8582 8.989 10.7346 9.06126 10.6106 9.1328C10.2669 9.33038 9.92007 9.52236 9.57016 9.70867C10.0506 9.69571 10.5311 9.68927 11.0117 9.68933C13.6509 9.68933 16.0414 9.88166 17.7496 10.1867C18.6038 10.3392 19.2894 10.5225 19.7299 10.7086C19.9502 10.8015 20.1078 10.8972 20.1869 10.9663C20.221 10.9961 20.2321 11.0111 20.2397 11.0213C20.2321 11.0316 20.221 11.0466 20.1869 11.0764C20.1078 11.1454 19.9502 11.2411 19.7299 11.3341C19.2894 11.5201 18.6038 11.7034 17.7497 11.8559C16.0414 12.161 13.6509 12.3534 11.0117 12.3534C8.42564 12.3534 6.08015 12.1684 4.37949 11.874C4.33386 11.8866 4.2872 11.9002 4.24212 11.9122C3.59944 12.0837 3.01738 12.1934 2.50322 12.2318C2.95946 12.377 3.50628 12.5046 4.13779 12.6174C5.91309 12.9344 8.3352 13.1268 11.0117 13.1268C13.6882 13.1268 16.1103 12.9344 17.8856 12.6174C18.7733 12.4588 19.4972 12.2719 20.0308 12.0466C20.2976 11.934 20.5182 11.8138 20.6955 11.659C20.8728 11.5043 21.0234 11.2863 21.0234 11.0214C21.0234 10.7564 20.8728 10.5383 20.6955 10.3836C20.5182 10.2289 20.2976 10.1087 20.0308 9.996C19.4972 9.77076 18.7733 9.58376 17.8856 9.42529C16.1103 9.10827 13.6882 8.91586 11.0117 8.91586ZM20.6367 12.3931C19.8682 12.7954 18.8193 13.0679 17.5922 13.2962C15.6901 13.6502 13.3529 13.8304 11.0144 13.8469C8.6759 13.8633 6.33938 13.7158 4.43926 13.4036C3.48922 13.2475 2.64854 13.0509 1.96302 12.8063C1.75698 12.7328 1.56461 12.6559 1.38672 12.5734V17.4072C3.73827 18.2605 7.38004 18.7127 11.0117 18.7127C14.6434 18.7127 18.2852 18.2605 20.6367 17.4072V12.3931ZM1.01521 18.0957C1.00512 18.1431 1.00002 18.1915 1 18.2401C1 18.505 1.15065 18.723 1.32798 18.8778C1.50527 19.0325 1.72587 19.1527 1.99266 19.2654C2.52621 19.4906 3.25014 19.6776 4.13779 19.8361C5.91309 20.1531 8.3352 20.3455 11.0117 20.3455C13.6882 20.3455 16.1103 20.1531 17.8856 19.8361C18.7733 19.6776 19.4972 19.4906 20.0308 19.2654C20.2976 19.1528 20.5182 19.0325 20.6955 18.8778C20.8728 18.7231 21.0234 18.505 21.0234 18.2401C21.0234 18.1903 21.0181 18.1421 21.0082 18.0957C18.4934 19.0402 14.7584 19.4862 11.0117 19.4862C7.26502 19.4862 3.53004 19.0402 1.01521 18.0957Z" fill="#4F86E8"/>
</svg>
